<?xml version="1.0" encoding="utf-8"?>
<!-- Generator: Adobe Illustrator 19.1.0, SVG Export Plug-In . SVG Version: 6.00 Build 0)  -->
<svg version="1.1" id="Layer_1" xmlns="http://www.w3.org/2000/svg" xmlns:xlink="http://www.w3.org/1999/xlink" x="0px" y="0px"
	 viewBox="297 -72.9 679.8 198.9" style="enable-background:new 297 -72.9 679.8 198.9;" xml:space="preserve">
<style type="text/css">
	.st0{opacity:0.5;fill:#FFFFFF;enable-background:new    ;}
</style>
<path class="st0" d="M831.3,54.9l38.1-116.3c0.2,0,0.4,0.1,0.7,0.1c1.1,0,2.2-0.5,2.9-1.3L976.4,3.5l0.5-0.8L873.4-63.4
	c0.2-0.5,0.4-1,0.4-1.6c0-2-1.7-3.7-3.8-3.7s-3.8,1.7-3.8,3.7c0,1.5,0.9,2.7,2.2,3.3L830.6,53.7L799.5-2.7c1.2-0.6,2.1-1.8,2.1-3.3
	c0-2-1.7-3.7-3.8-3.7S794-8,794-6c0,0.5,0.1,1,0.3,1.4l-46.8,24L715.2,4.6c0.2-0.5,0.4-1,0.4-1.6c0-2-1.7-3.7-3.8-3.7S708,1,708,3
	c0,1.4,0.8,2.5,1.9,3.2l-26.3,46.2L543,124.7L420.3,79c0.2-0.4,0.3-0.9,0.3-1.3c0-2-1.7-3.7-3.8-3.7s-3.8,1.7-3.8,3.7
	c0,0.5,0.1,1,0.3,1.4L296,124.6l0.4,0.9l117.4-45.7c0.7,0.9,1.8,1.4,3,1.4c1.2,0,2.3-0.6,3-1.5l123,45.8l0.2,0.1L682.6,54L642,125.4
	l0.9,0.5l41.4-72.7l63.3-32.5l81.6,37.6l-22,67.2l1,0.3l22-67.1l2.8,1.3l36.3,65.9l0.9-0.5l-35.6-64.7l141.9,65.4l0.4-0.9l-143.1-66
	L831.3,54.9z M685.2,51.5l25.6-45c0.3,0.1,0.7,0.1,1,0.1c1.1,0,2.2-0.5,2.9-1.3l31.7,14.6L685.2,51.5z M748.7,20l46.1-23.7
	c0.7,0.9,1.8,1.4,3,1.4c0.3,0,0.5,0,0.8-0.1L830.2,55l-0.7,2.2L748.7,20z M830.4,57.7l0.5-1.5l1.2,2.3L830.4,57.7z"/>
</svg>
