<?xml version="1.0" encoding="utf-8"?>
<!-- Generator: Adobe Illustrator 17.1.0, SVG Export Plug-In . SVG Version: 6.00 Build 0)  -->
<!DOCTYPE svg PUBLIC "-//W3C//DTD SVG 1.1//EN" "http://www.w3.org/Graphics/SVG/1.1/DTD/svg11.dtd">
<svg version="1.1" id="Layer_1" xmlns="http://www.w3.org/2000/svg" xmlns:xlink="http://www.w3.org/1999/xlink" x="0px" y="0px"
	 viewBox="0 0 595.3 841.9" enable-background="new 0 0 595.3 841.9" xml:space="preserve">
<rect x="304.8" y="158.1" fill="#FFFFFF" fill-opacity="0" width="525.7" height="525.7"/>
<path fill="#FFFFFF" d="M520.3,355.7h-38.9v63.1h38.9v185.1H596v-184h50.5l8.4-64.2h-57.8l1.1-30.5c0,0-4.2-23.1,20-25.2h36.8v-63.1
	h-62c0,0-69.4,0-70.4,65.2L520.3,355.7z"/>
<path display="none" fill="#FFFFFF" d="M776,291.2c-15.5,7.1-32.1,11.9-48.8,13.1c17.9-10.7,31-27.4,38.1-47.6
	c-16.7,9.5-34.5,16.7-54.8,20.2c-15.5-16.7-38.1-27.4-61.9-27.4c-47.6,0-85.7,38.1-85.7,85.7c0,7.1,1.2,13.1,2.4,19
	c-71.4-3.6-134.5-38.1-176.2-89.3c-7.1,13.1-11.9,27.4-11.9,42.9c0,29.8,15.5,56,38.1,71.4c-14.3,0-27.4-4.8-39.3-10.7v1.2
	c0,41.7,29.8,76.2,69.1,83.3c-7.1,2.4-14.3,3.6-22.6,3.6c-6,0-10.7,0-16.7-1.2c10.7,34.5,42.9,58.3,79.8,59.5
	c-29.8,22.6-66.7,36.9-106,36.9c-7.1,0-14.3,0-20.2-1.2c38.1,23.8,83.3,38.1,131,38.1c157.2,0,242.9-129.8,242.9-242.9
	c0-3.6,0-7.1,0-10.7C749.8,324.5,764.1,309,776,291.2z"/>
<g display="none">
	<g display="inline">
		<g>
			<path fill="#FFFFFF" d="M367.6,351.9h85.7v276.2h-85.7V351.9z M410.5,213.8c27.4,0,50,22.6,50,50s-22.6,50-50,50s-50-22.6-50-50
				S383.1,213.8,410.5,213.8"/>
			<path fill="#FFFFFF" d="M506.9,351.9h82.1V390h1.2c11.9-21.4,39.3-44.1,81-44.1c86.9,0,102.4,57.1,102.4,132.2v151.2h-85.7V493.6
				c0-32.1-1.2-73.8-45.2-73.8c-45.2,0-51.2,34.5-51.2,71.4v136.9h-85.7V351.9H506.9z"/>
		</g>
	</g>
</g>
</svg>
