<?xml version="1.0" encoding="utf-8"?>
<!-- Generator: Adobe Illustrator 18.1.0, SVG Export Plug-In . SVG Version: 6.00 Build 0)  -->
<svg version="1.1" id="Layer_1" xmlns="http://www.w3.org/2000/svg" xmlns:xlink="http://www.w3.org/1999/xlink" x="0px" y="0px"
	 viewBox="270 0 900 900" enable-background="new 270 0 900 900" xml:space="preserve">
<rect x="322.6" y="52.6" fill="#FFFFFF" fill-opacity="0" width="794.8" height="794.8"/>
<path fill="#FFFFFF" d="M648.5,351.4h-58.8v95.4h58.8v279.8h114.4V448.4h76.3l12.7-97h-87.4l1.6-46.1c0,0-6.4-35,30.2-38.1h55.6
	v-95.4h-93.8c0,0-104.9,0-106.5,98.6L648.5,351.4z"/>
<path display="none" fill="#FFFFFF" d="M1035,253.8c-23.4,10.8-48.6,18-73.8,19.8c27-16.2,46.8-41.4,57.6-72
	c-25.2,14.4-52.2,25.2-82.8,30.6c-23.4-25.2-57.6-41.4-93.6-41.4c-72,0-129.6,57.6-129.6,129.6c0,10.8,1.8,19.8,3.6,28.8
	c-108-5.4-203.4-57.6-266.4-135c-10.8,19.8-18,41.4-18,64.8c0,45,23.4,84.6,57.6,108c-21.6,0-41.4-7.2-59.4-16.2v1.8
	c0,63,45,115.2,104.4,126c-10.8,3.6-21.6,5.4-34.2,5.4c-9,0-16.2,0-25.2-1.8c16.2,52.2,64.8,88.2,120.6,90
	C550.8,626.4,495,648,435.6,648c-10.8,0-21.6,0-30.6-1.8c57.6,36,126,57.6,198,57.6c237.6,0,367.2-196.2,367.2-367.2
	c0-5.4,0-10.8,0-16.2C995.4,304.2,1017,280.8,1035,253.8z"/>
<g display="none">
	<g display="inline">
		<g>
			<path fill="#FFFFFF" d="M417.6,345.6h129.6v417.6H417.6V345.6z M482.4,136.8c41.4,0,75.6,34.2,75.6,75.6S523.8,288,482.4,288
				s-75.6-34.2-75.6-75.6C406.8,171,441,136.8,482.4,136.8"/>
			<path fill="#FFFFFF" d="M628.2,345.6h124.2v57.6h1.8c18-32.4,59.4-66.6,122.4-66.6c131.4,0,154.8,86.4,154.8,199.8V765H901.8
				V559.8c0-48.6-1.8-111.6-68.4-111.6c-68.4,0-77.4,52.2-77.4,108v207H626.4V345.6H628.2z"/>
		</g>
	</g>
</g>
</svg>
