<?xml version="1.0" encoding="utf-8"?>
<!-- Generator: Adobe Illustrator 17.1.0, SVG Export Plug-In . SVG Version: 6.00 Build 0)  -->
<!DOCTYPE svg PUBLIC "-//W3C//DTD SVG 1.1//EN" "http://www.w3.org/Graphics/SVG/1.1/DTD/svg11.dtd">
<svg version="1.1" id="Layer_1" xmlns="http://www.w3.org/2000/svg" xmlns:xlink="http://www.w3.org/1999/xlink" x="0px" y="0px"
	 viewBox="0 0 23.7 23.5" enable-background="new 0 0 23.7 23.5" xml:space="preserve">
<g>
	<path opacity="0.8" fill="#0D161F" d="M11.8,0c6.6,0,11.9,5.2,11.9,11.8c0,6.4-5.4,11.9-11.8,11.8c-7.9-0.1-12-6.8-11.8-12
		C0.2,5.1,5.2,0,11.8,0z"/>
	<path fill="#FDFEFF" d="M13,18.5c-0.9,0.7-1.8,0.3-2.7,0.2c-0.4,0-0.3-0.6-0.3-0.9c0-1.6,0-3.3,0-4.9c0-0.4,0.2-0.8-0.2-1.1
		C9.4,12,9,12,8.7,11.8c-0.1-0.1-0.2-0.1-0.2-0.2c-0.2-0.7-0.2-1.4,0-2.1c0.1-0.1,0.1-0.2,0.2-0.2c0.4-0.2,0.8-0.1,1.1,0
		C10.2,8.8,10,8.3,10,7.8c0.1-2.2,1-3.1,3.2-3.1c0.2,0,0.3,0,0.5,0c1.4,0,1.9,0.8,1.5,2.1c-0.2,0.5-0.6,0.3-1,0.4
		c-1.1,0.1-1.5,0.8-1.3,1.8c0.1,0.5,0.5,0.4,0.8,0.4c1.2-0.2,1.6,0.2,1.3,1.4c-0.1,0.3-0.1,0.7-0.1,1c-0.3,0.4-0.8,0.1-1.1,0.2
		c-0.3,0-0.6,0-0.6,0.4c0,1.7,0,3.4,0,5.1C13.1,17.7,13.3,18.1,13,18.5z"/>
	<path fill="#29549A" d="M13,18.5c-0.1-2.1-0.1-4.3,0-6.4c0.1-0.1,0.2-0.1,0.3,0c0,2.1,0,4.3,0,6.4c0,0,0,0.1-0.1,0.1
		C13.1,18.5,13.1,18.5,13,18.5z"/>
	<path fill="#36579B" d="M9.6,18.5c0-2,0-4,0-5.9c0,0,0.1,0,0.1,0C9.7,14.6,9.7,16.5,9.6,18.5C9.7,18.5,9.7,18.5,9.6,18.5z"/>
	<path fill="#32559B" d="M12.6,4.2c0.8,0,1.5,0,2.3,0c0,0,0,0.1,0,0.1c-0.7,0-1.5,0-2.2,0C12.6,4.3,12.6,4.3,12.6,4.2z"/>
	<path fill="#245299" d="M12.5,19.2c-0.8,0-1.5,0-2.3,0c0,0,0-0.1,0-0.1c0.7,0,1.5,0,2.2,0C12.5,19.1,12.5,19.1,12.5,19.2z"/>
	<path fill="#2B539A" d="M15.5,4.9c0,0.6,0,1.2,0,1.8c0,0-0.1,0-0.1,0c0-0.6,0-1.2,0-1.8C15.4,4.9,15.5,4.9,15.5,4.9z"/>
	<path fill="#26599F" d="M8.4,9.5c0,0.7,0,1.4,0,2.1C8,10.9,8,10.2,8.4,9.5z"/>
	<path fill="#164B98" d="M13.3,12.1c-0.1,0-0.2,0-0.3,0c0.5-0.6,1.3-0.1,1.9-0.3C14.4,12.3,13.8,11.9,13.3,12.1z"/>
	<path fill="#174994" d="M8.7,11.8c0.4,0,0.7,0,1.1,0.1C9.4,12.1,9,12.3,8.7,11.8z"/>
	<path fill="#2A5EA4" d="M9.8,9.2c-0.4,0-0.8,0-1.1,0C9,8.9,9.4,9,9.8,9.2z"/>
</g>
</svg>
